<svg xmlns="http://www.w3.org/2000/svg" width="20" height="20" viewBox="0 0 20 20">
  <g id="vuesax_twotone_code" data-name="vuesax/twotone/code" transform="translate(-556 -252)">
    <g id="code" transform="translate(556 252)">
      <path id="Vector" d="M1.369,3.833a.622.622,0,0,1-.279-.066A4.166,4.166,0,0,1-.5,2.365l0-.005A1.489,1.489,0,0,1-.5.723l0-.005A4.166,4.166,0,0,1,1.09-.684a.625.625,0,0,1,.839.28.625.625,0,0,1-.28.839A2.874,2.874,0,0,0,.54,1.412a.231.231,0,0,0,0,.259,2.874,2.874,0,0,0,1.109.978.625.625,0,0,1-.28,1.184Z" transform="translate(6.131 10.958)" fill="#8d98aa" opacity="0.4"/>
      <path id="Vector-2" data-name="Vector" d="M-.125,3.833a.625.625,0,0,1-.56-.346A.625.625,0,0,1-.4,2.649,2.874,2.874,0,0,0,.7,1.671a.231.231,0,0,0,0-.259A2.874,2.874,0,0,0-.4.434.625.625,0,0,1-.684-.4a.625.625,0,0,1,.839-.28A4.166,4.166,0,0,1,1.744.718l0,.005a1.489,1.489,0,0,1,0,1.636l0,.005a4.166,4.166,0,0,1-1.589,1.4A.623.623,0,0,1-.125,3.833Z" transform="translate(12.8 10.958)" fill="#8d98aa" opacity="0.4"/>
      <path id="Vector-3" data-name="Vector" d="M10.708,17.167h-5c-2.309,0-3.872-.488-4.921-1.537S-.75,13.017-.75,10.708v-5C-.75,3.4-.262,1.836.787.787S3.4-.75,5.708-.75h5c2.309,0,3.872.488,4.921,1.537S17.167,3.4,17.167,5.708v5c0,2.309-.488,3.872-1.537,4.921S13.017,17.167,10.708,17.167ZM5.708.5C3.753.5,2.47.872,1.671,1.671S.5,3.753.5,5.708v5c0,1.955.372,3.238,1.171,4.037s2.082,1.171,4.037,1.171h5c1.955,0,3.238-.372,4.037-1.171s1.171-2.082,1.171-4.037v-5c0-1.955-.372-3.238-1.171-4.037S12.664.5,10.708.5Z" transform="translate(1.792 1.792)" fill="#8d98aa"/>
      <path id="Vector-4" data-name="Vector" d="M-.125.508A.625.625,0,0,1-.75-.116.625.625,0,0,1-.125-.742L15.891-.75h0a.625.625,0,0,1,.625.625A.625.625,0,0,1,15.892.5L-.125.508Z" transform="translate(1.983 6.792)" fill="#8d98aa" opacity="0.4"/>
      <path id="Vector-5" data-name="Vector" d="M0,0H20V20H0Z" fill="none" opacity="0"/>
    </g>
  </g>
</svg>
