<svg xmlns="http://www.w3.org/2000/svg" width="10" height="10" viewBox="0 0 10 10">
  <path id="Path_153355" data-name="Path 153355" d="M11.71,6.8a1.059,1.059,0,0,0,.245-1.085A1.046,1.046,0,0,0,11.109,5L8.962,4.67a.07.07,0,0,1-.045-.04l-.941-2A1.057,1.057,0,0,0,6.05,2.615l-.941,2a.08.08,0,0,1-.05.04L2.917,5a1.061,1.061,0,0,0-.851.715A1.074,1.074,0,0,0,2.316,6.8L3.9,8.424a.08.08,0,0,1,0,.065l-.37,2.27a1.061,1.061,0,0,0,1.566,1.1L6.96,10.828a.065.065,0,0,1,.06,0l1.867,1.035a1.066,1.066,0,0,0,1.566-1.1L10.108,8.5a.06.06,0,0,1,0-.06Z" transform="translate(-2.012 -2)" fill="#e0e4ec"/>
</svg>
