<?xml version="1.0" encoding="utf-8"?>
<!-- Uploaded to: SVG Repo, www.svgrepo.com, Generator: SVG Repo Mixer Tools -->
<svg width="800px" height="800px" viewBox="0 -5 1034 1034" class="icon"  version="1.1" xmlns="http://www.w3.org/2000/svg"><path d="M414.3875 368.85l-0.591667 146.808333-66.025 7.0875L209.470833 250.625 40.3375 367.316667l-8.266667 234.8 116.454167 205.8625 29.529167-29.2875 0.354166-87.991667 125.075-109.483333 132.1625-28.820834 572.233334 9.683334 8.033333-190.745834-601.525-2.483333z m-330.941667 204.095833l8.15-175.983333L179.825 338.616667l72.875 102.991666-169.254167 131.3375z" fill="#00A2E9" /><path d="M328.15 728.645833m-88.375 0a88.375 88.375 0 1 0 176.75 0 88.375 88.375 0 1 0-176.75 0Z" fill="#00A2E9" /><path d="M815.766667 730.65m-88.379167 0a88.379167 88.379167 0 1 0 176.758333 0 88.379167 88.379167 0 1 0-176.758333 0Z" fill="#00A2E9" /><path d="M129.958333 805.358333l-129.958333-227.3625 7.7125-247.258333 190.104167-132.329167 142.770833 277.929167 41.033333-4.625V323.333333h633.895834l-8.55 222.691667-585.8625-7.5-126.25 28.008333-116.279167 102.629167v87.383333l-48.616667 48.8125zM32.016667 570.020833l104.841666 183.420834 9.966667-10.004167v-88.595833l133.158333-117.529167 137.841667-30.579167 1.841667 0.025 556.758333 7.125 6.1-158.795833H413.370833v145l-91.008333 10.258333L186.1625 245.208333 38.95 347.675l-6.933333 222.345833z" fill="#332C2B" /><path d="M50.091667 578.295833l9.091666-218.404166 107.491667-71.708334 91.116667 127.508334-207.7 162.604166z m40.141666-200.954166l-5.558333 133.554166 129.616667-101.475-55.570834-77.766666-68.4875 45.6875zM312.695833 803.183333c-57.275 0-103.866667-46.591667-103.866666-103.8625s46.595833-103.866667 103.866666-103.866666c57.270833 0 103.866667 46.595833 103.866667 103.866666s-46.595833 103.8625-103.866667 103.8625z m0-175.983333c-39.766667 0-72.116667 32.354167-72.116666 72.120833 0 39.7625 32.35 72.116667 72.116666 72.116667 39.7625 0 72.116667-32.354167 72.116667-72.116667 0-39.766667-32.35-72.120833-72.116667-72.120833zM800.245833 803.183333c-57.270833 0-103.866667-46.591667-103.866666-103.8625s46.595833-103.866667 103.866666-103.866666 103.866667 46.595833 103.866667 103.866666-46.591667 103.8625-103.866667 103.8625z m0-175.983333c-39.766667 0-72.120833 32.354167-72.120833 72.120833 0 39.7625 32.354167 72.116667 72.120833 72.116667s72.120833-32.354167 72.120834-72.116667c0-39.766667-32.354167-72.120833-72.120834-72.120833z" fill="#332C2B" /></svg>